<svg width="64" height="64" viewBox="0 0 64 64" xmlns="http://www.w3.org/2000/svg"><defs>
    <linearGradient id="bg" x1="0" y1="0" x2="1" y2="1">
      <stop offset="0%" stop-color="#33883A"/><stop offset="52%" stop-color="#256B2A"/><stop offset="100%" stop-color="#154A1C"/>
    </linearGradient>
    <radialGradient id="glowBlue" cx="88%" cy="90%" r="70%">
      <stop offset="0%" stop-color="#1565C0" stop-opacity="0.45"/><stop offset="60%" stop-color="#1565C0" stop-opacity="0"/>
    </radialGradient>
    <radialGradient id="hi" cx="26%" cy="20%" r="65%">
      <stop offset="0%" stop-color="#ffffff" stop-opacity="0.18"/><stop offset="55%" stop-color="#ffffff" stop-opacity="0"/>
    </radialGradient>
    <filter id="soft" x="-20%" y="-20%" width="140%" height="140%">
      <feDropShadow dx="0" dy="10" stdDeviation="14" flood-color="#0b3011" flood-opacity="0.35"/>
    </filter>
  </defs><rect x="0" y="0" width="64" height="64" rx="14" fill="url(#bg)"/><rect x="0" y="0" width="64" height="64" rx="14" fill="url(#glowBlue)"/><rect x="0" y="0" width="64" height="64" rx="14" fill="url(#hi)"/><g>
    <circle cx="15.375" cy="32" r="19.0" fill="none" stroke="#ffffff" stroke-width="3.25"/>
    <line x1="15.4" y1="19.5" x2="15.4" y2="15.0" stroke="#ffffff" stroke-width="1.88" stroke-linecap="round" opacity="1.0"/>
    <line x1="22.4" y1="19.9" x2="23.9" y2="17.3" stroke="#ffffff" stroke-width="0.87" stroke-linecap="round" opacity="0.7"/>
    <line x1="27.5" y1="25.0" x2="30.1" y2="23.5" stroke="#ffffff" stroke-width="0.87" stroke-linecap="round" opacity="0.7"/>
    <line x1="27.9" y1="32.0" x2="32.4" y2="32.0" stroke="#ffffff" stroke-width="1.88" stroke-linecap="round" opacity="1.0"/>
    <line x1="27.5" y1="39.0" x2="30.1" y2="40.5" stroke="#ffffff" stroke-width="0.87" stroke-linecap="round" opacity="0.7"/>
    <line x1="22.4" y1="44.1" x2="23.9" y2="46.7" stroke="#ffffff" stroke-width="0.87" stroke-linecap="round" opacity="0.7"/>
    <line x1="15.4" y1="44.5" x2="15.4" y2="49.0" stroke="#ffffff" stroke-width="1.88" stroke-linecap="round" opacity="1.0"/>
    <line x1="8.4" y1="44.1" x2="6.9" y2="46.7" stroke="#ffffff" stroke-width="0.87" stroke-linecap="round" opacity="0.7"/>
    <line x1="3.2" y1="39.0" x2="0.6" y2="40.5" stroke="#ffffff" stroke-width="0.87" stroke-linecap="round" opacity="0.7"/>
    <line x1="2.9" y1="32.0" x2="-1.6" y2="32.0" stroke="#ffffff" stroke-width="1.88" stroke-linecap="round" opacity="1.0"/>
    <line x1="3.2" y1="25.0" x2="0.6" y2="23.5" stroke="#ffffff" stroke-width="0.87" stroke-linecap="round" opacity="0.7"/>
    <line x1="8.4" y1="19.9" x2="6.9" y2="17.3" stroke="#ffffff" stroke-width="0.87" stroke-linecap="round" opacity="0.7"/>
    <line x1="15.375" y1="32" x2="7.0" y2="26.1" stroke="#ffffff" stroke-width="2.51" stroke-linecap="round"/>
    <line x1="15.375" y1="32" x2="27.1" y2="25.2" stroke="#ffffff" stroke-width="1.88" stroke-linecap="round"/>
    <circle cx="15.375" cy="32" r="2.87" fill="#ffffff"/>
    <circle cx="15.375" cy="32" r="1.37" fill="#FFB300"/>
    <text x="53.1" y="32" font-family="'SF Pro Display','Helvetica Neue','Arial',sans-serif" font-size="53.8" font-weight="800" fill="#ffffff" text-anchor="middle" dominant-baseline="central">T</text>
  </g></svg>